<mxfile host="app.diagrams.net" modified="2021-03-09T12:04:47.445Z" agent="5.0 (Macintosh; Intel Mac OS X 10_12_6) AppleWebKit/605.1.15 (KHTML, like Gecko) Version/12.1.2 Safari/605.1.15" etag="KKS6uYldu9bpH5JshjPd" version="14.4.4" type="github">
  <diagram id="NjGo_VTeHlsAM908IX4R" name="Page-1">
    <mxGraphModel dx="2267" dy="719" grid="1" gridSize="10" guides="1" tooltips="1" connect="1" arrows="1" fold="1" page="1" pageScale="1" pageWidth="827" pageHeight="1169" math="0" shadow="0">
      <root>
        <mxCell id="0" />
        <mxCell id="1" parent="0" />
        <mxCell id="VSbXNU693h9QZ7fEaHRp-377" value="Transaction" style="shape=table;html=1;whiteSpace=wrap;startSize=30;container=1;collapsible=0;childLayout=tableLayout;fixedRows=1;rowLines=0;fontStyle=1;align=center;" vertex="1" parent="1">
          <mxGeometry x="-730" y="230" width="180" height="310" as="geometry" />
        </mxCell>
        <mxCell id="VSbXNU693h9QZ7fEaHRp-378" value="" style="shape=partialRectangle;html=1;whiteSpace=wrap;collapsible=0;dropTarget=0;pointerEvents=0;fillColor=none;top=0;left=0;bottom=1;right=0;points=[[0,0.5],[1,0.5]];portConstraint=eastwest;" vertex="1" parent="VSbXNU693h9QZ7fEaHRp-377">
          <mxGeometry y="30" width="180" height="30" as="geometry" />
        </mxCell>
        <mxCell id="VSbXNU693h9QZ7fEaHRp-379" value="version" style="shape=partialRectangle;html=1;whiteSpace=wrap;connectable=0;fillColor=none;top=0;left=0;bottom=0;right=0;overflow=hidden;" vertex="1" parent="VSbXNU693h9QZ7fEaHRp-378">
          <mxGeometry width="90" height="30" as="geometry" />
        </mxCell>
        <mxCell id="VSbXNU693h9QZ7fEaHRp-380" value="“1”" style="shape=partialRectangle;html=1;whiteSpace=wrap;connectable=0;fillColor=none;top=0;left=0;bottom=0;right=0;align=center;spacingLeft=6;overflow=hidden;" vertex="1" parent="VSbXNU693h9QZ7fEaHRp-378">
          <mxGeometry x="90" width="90" height="30" as="geometry" />
        </mxCell>
        <mxCell id="VSbXNU693h9QZ7fEaHRp-381" value="" style="shape=partialRectangle;html=1;whiteSpace=wrap;collapsible=0;dropTarget=0;pointerEvents=0;fillColor=none;top=0;left=0;bottom=1;right=0;points=[[0,0.5],[1,0.5]];portConstraint=eastwest;" vertex="1" parent="VSbXNU693h9QZ7fEaHRp-377">
          <mxGeometry y="60" width="180" height="30" as="geometry" />
        </mxCell>
        <mxCell id="VSbXNU693h9QZ7fEaHRp-382" value="utxo_deps" style="shape=partialRectangle;html=1;whiteSpace=wrap;connectable=0;fillColor=none;top=0;left=0;bottom=0;right=0;overflow=hidden;" vertex="1" parent="VSbXNU693h9QZ7fEaHRp-381">
          <mxGeometry width="90" height="30" as="geometry" />
        </mxCell>
        <mxCell id="VSbXNU693h9QZ7fEaHRp-383" value="" style="shape=partialRectangle;html=1;whiteSpace=wrap;connectable=0;fillColor=none;top=0;left=0;bottom=0;right=0;align=left;spacingLeft=6;overflow=hidden;" vertex="1" parent="VSbXNU693h9QZ7fEaHRp-381">
          <mxGeometry x="90" width="90" height="30" as="geometry" />
        </mxCell>
        <mxCell id="VSbXNU693h9QZ7fEaHRp-384" value="" style="shape=partialRectangle;html=1;whiteSpace=wrap;collapsible=0;dropTarget=0;pointerEvents=0;fillColor=none;top=0;left=0;bottom=1;right=0;points=[[0,0.5],[1,0.5]];portConstraint=eastwest;" vertex="1" parent="VSbXNU693h9QZ7fEaHRp-377">
          <mxGeometry y="90" width="180" height="30" as="geometry" />
        </mxCell>
        <mxCell id="VSbXNU693h9QZ7fEaHRp-385" value="header_deps" style="shape=partialRectangle;html=1;whiteSpace=wrap;connectable=0;fillColor=none;top=0;left=0;bottom=0;right=0;overflow=hidden;" vertex="1" parent="VSbXNU693h9QZ7fEaHRp-384">
          <mxGeometry width="90" height="30" as="geometry" />
        </mxCell>
        <mxCell id="VSbXNU693h9QZ7fEaHRp-386" value="&quot;0x0000B&quot;" style="shape=partialRectangle;html=1;whiteSpace=wrap;connectable=0;fillColor=none;top=0;left=0;bottom=0;right=0;align=left;spacingLeft=6;overflow=hidden;" vertex="1" parent="VSbXNU693h9QZ7fEaHRp-384">
          <mxGeometry x="90" width="90" height="30" as="geometry" />
        </mxCell>
        <mxCell id="VSbXNU693h9QZ7fEaHRp-387" value="" style="shape=partialRectangle;html=1;whiteSpace=wrap;collapsible=0;dropTarget=0;pointerEvents=0;fillColor=none;top=0;left=0;bottom=1;right=0;points=[[0,0.5],[1,0.5]];portConstraint=eastwest;" vertex="1" parent="VSbXNU693h9QZ7fEaHRp-377">
          <mxGeometry y="120" width="180" height="30" as="geometry" />
        </mxCell>
        <mxCell id="VSbXNU693h9QZ7fEaHRp-388" value="inputs" style="shape=partialRectangle;html=1;whiteSpace=wrap;connectable=0;fillColor=none;top=0;left=0;bottom=0;right=0;overflow=hidden;" vertex="1" parent="VSbXNU693h9QZ7fEaHRp-387">
          <mxGeometry width="90" height="30" as="geometry" />
        </mxCell>
        <mxCell id="VSbXNU693h9QZ7fEaHRp-389" value="" style="shape=partialRectangle;html=1;whiteSpace=wrap;connectable=0;fillColor=none;top=0;left=0;bottom=0;right=0;align=left;spacingLeft=6;overflow=hidden;" vertex="1" parent="VSbXNU693h9QZ7fEaHRp-387">
          <mxGeometry x="90" width="90" height="30" as="geometry" />
        </mxCell>
        <mxCell id="VSbXNU693h9QZ7fEaHRp-390" value="" style="shape=partialRectangle;html=1;whiteSpace=wrap;collapsible=0;dropTarget=0;pointerEvents=0;fillColor=none;top=0;left=0;bottom=1;right=0;points=[[0,0.5],[1,0.5]];portConstraint=eastwest;" vertex="1" parent="VSbXNU693h9QZ7fEaHRp-377">
          <mxGeometry y="150" width="180" height="30" as="geometry" />
        </mxCell>
        <mxCell id="VSbXNU693h9QZ7fEaHRp-391" value="outputs" style="shape=partialRectangle;html=1;whiteSpace=wrap;connectable=0;fillColor=none;top=0;left=0;bottom=0;right=0;overflow=hidden;" vertex="1" parent="VSbXNU693h9QZ7fEaHRp-390">
          <mxGeometry width="90" height="30" as="geometry" />
        </mxCell>
        <mxCell id="VSbXNU693h9QZ7fEaHRp-392" value="" style="shape=partialRectangle;html=1;whiteSpace=wrap;connectable=0;fillColor=none;top=0;left=0;bottom=0;right=0;align=left;spacingLeft=6;overflow=hidden;" vertex="1" parent="VSbXNU693h9QZ7fEaHRp-390">
          <mxGeometry x="90" width="90" height="30" as="geometry" />
        </mxCell>
        <mxCell id="VSbXNU693h9QZ7fEaHRp-393" value="" style="shape=partialRectangle;html=1;whiteSpace=wrap;collapsible=0;dropTarget=0;pointerEvents=0;fillColor=none;top=0;left=0;bottom=1;right=0;points=[[0,0.5],[1,0.5]];portConstraint=eastwest;" vertex="1" parent="VSbXNU693h9QZ7fEaHRp-377">
          <mxGeometry y="180" width="180" height="30" as="geometry" />
        </mxCell>
        <mxCell id="VSbXNU693h9QZ7fEaHRp-394" value="outsputs_data" style="shape=partialRectangle;html=1;whiteSpace=wrap;connectable=0;fillColor=none;top=0;left=0;bottom=0;right=0;overflow=hidden;" vertex="1" parent="VSbXNU693h9QZ7fEaHRp-393">
          <mxGeometry width="90" height="30" as="geometry" />
        </mxCell>
        <mxCell id="VSbXNU693h9QZ7fEaHRp-395" value="...." style="shape=partialRectangle;html=1;whiteSpace=wrap;connectable=0;fillColor=none;top=0;left=0;bottom=0;right=0;align=center;spacingLeft=6;overflow=hidden;" vertex="1" parent="VSbXNU693h9QZ7fEaHRp-393">
          <mxGeometry x="90" width="90" height="30" as="geometry" />
        </mxCell>
        <mxCell id="VSbXNU693h9QZ7fEaHRp-396" value="" style="shape=partialRectangle;html=1;whiteSpace=wrap;collapsible=0;dropTarget=0;pointerEvents=0;fillColor=none;top=0;left=0;bottom=1;right=0;points=[[0,0.5],[1,0.5]];portConstraint=eastwest;" vertex="1" parent="VSbXNU693h9QZ7fEaHRp-377">
          <mxGeometry y="210" width="180" height="70" as="geometry" />
        </mxCell>
        <mxCell id="VSbXNU693h9QZ7fEaHRp-397" value="witness" style="shape=partialRectangle;html=1;whiteSpace=wrap;connectable=0;fillColor=none;top=0;left=0;bottom=0;right=0;overflow=hidden;" vertex="1" parent="VSbXNU693h9QZ7fEaHRp-396">
          <mxGeometry width="90" height="70" as="geometry" />
        </mxCell>
        <mxCell id="VSbXNU693h9QZ7fEaHRp-398" value="Sig(input_1)&lt;br&gt;Sig(Inpur_2)&lt;br&gt;......." style="shape=partialRectangle;html=1;whiteSpace=wrap;connectable=0;fillColor=none;top=0;left=0;bottom=0;right=0;align=left;spacingLeft=6;overflow=hidden;" vertex="1" parent="VSbXNU693h9QZ7fEaHRp-396">
          <mxGeometry x="90" width="90" height="70" as="geometry" />
        </mxCell>
        <mxCell id="VSbXNU693h9QZ7fEaHRp-409" style="edgeStyle=orthogonalEdgeStyle;rounded=0;orthogonalLoop=1;jettySize=auto;html=1;exitX=0;exitY=0.5;exitDx=0;exitDy=0;entryX=1;entryY=0.5;entryDx=0;entryDy=0;" edge="1" parent="1" source="VSbXNU693h9QZ7fEaHRp-403" target="VSbXNU693h9QZ7fEaHRp-381">
          <mxGeometry relative="1" as="geometry" />
        </mxCell>
        <mxCell id="VSbXNU693h9QZ7fEaHRp-423" value="&lt;font style=&quot;font-size: 14px&quot;&gt;UtxoDep&lt;/font&gt;" style="edgeLabel;html=1;align=center;verticalAlign=middle;resizable=0;points=[];" vertex="1" connectable="0" parent="VSbXNU693h9QZ7fEaHRp-409">
          <mxGeometry x="-0.0549" relative="1" as="geometry">
            <mxPoint as="offset" />
          </mxGeometry>
        </mxCell>
        <mxCell id="VSbXNU693h9QZ7fEaHRp-399" value="TransactionA" style="shape=table;html=1;whiteSpace=wrap;startSize=30;container=1;collapsible=0;childLayout=tableLayout;fixedRows=1;rowLines=0;fontStyle=1;align=center;" vertex="1" parent="1">
          <mxGeometry x="-420" y="50" width="210" height="140" as="geometry" />
        </mxCell>
        <mxCell id="VSbXNU693h9QZ7fEaHRp-400" value="" style="shape=partialRectangle;html=1;whiteSpace=wrap;collapsible=0;dropTarget=0;pointerEvents=0;fillColor=none;top=0;left=0;bottom=1;right=0;points=[[0,0.5],[1,0.5]];portConstraint=eastwest;" vertex="1" parent="VSbXNU693h9QZ7fEaHRp-399">
          <mxGeometry y="30" width="210" height="30" as="geometry" />
        </mxCell>
        <mxCell id="VSbXNU693h9QZ7fEaHRp-401" value="inputs" style="shape=partialRectangle;html=1;whiteSpace=wrap;connectable=0;fillColor=none;top=0;left=0;bottom=0;right=0;overflow=hidden;" vertex="1" parent="VSbXNU693h9QZ7fEaHRp-400">
          <mxGeometry width="105" height="30" as="geometry" />
        </mxCell>
        <mxCell id="VSbXNU693h9QZ7fEaHRp-402" value="....." style="shape=partialRectangle;html=1;whiteSpace=wrap;connectable=0;fillColor=none;top=0;left=0;bottom=0;right=0;align=center;spacingLeft=6;overflow=hidden;" vertex="1" parent="VSbXNU693h9QZ7fEaHRp-400">
          <mxGeometry x="105" width="105" height="30" as="geometry" />
        </mxCell>
        <mxCell id="VSbXNU693h9QZ7fEaHRp-403" value="" style="shape=partialRectangle;html=1;whiteSpace=wrap;collapsible=0;dropTarget=0;pointerEvents=0;fillColor=none;top=0;left=0;bottom=1;right=0;points=[[0,0.5],[1,0.5]];portConstraint=eastwest;" vertex="1" parent="VSbXNU693h9QZ7fEaHRp-399">
          <mxGeometry y="60" width="210" height="30" as="geometry" />
        </mxCell>
        <mxCell id="VSbXNU693h9QZ7fEaHRp-404" value="output" style="shape=partialRectangle;html=1;whiteSpace=wrap;connectable=0;fillColor=none;top=0;left=0;bottom=0;right=0;overflow=hidden;" vertex="1" parent="VSbXNU693h9QZ7fEaHRp-403">
          <mxGeometry width="105" height="30" as="geometry" />
        </mxCell>
        <mxCell id="VSbXNU693h9QZ7fEaHRp-405" value="UTXO1" style="shape=partialRectangle;html=1;whiteSpace=wrap;connectable=0;fillColor=none;top=0;left=0;bottom=0;right=0;align=center;spacingLeft=6;overflow=hidden;" vertex="1" parent="VSbXNU693h9QZ7fEaHRp-403">
          <mxGeometry x="105" width="105" height="30" as="geometry" />
        </mxCell>
        <mxCell id="VSbXNU693h9QZ7fEaHRp-406" value="" style="shape=partialRectangle;html=1;whiteSpace=wrap;collapsible=0;dropTarget=0;pointerEvents=0;fillColor=none;top=0;left=0;bottom=1;right=0;points=[[0,0.5],[1,0.5]];portConstraint=eastwest;" vertex="1" parent="VSbXNU693h9QZ7fEaHRp-399">
          <mxGeometry y="90" width="210" height="30" as="geometry" />
        </mxCell>
        <mxCell id="VSbXNU693h9QZ7fEaHRp-407" value="other&lt;br&gt;fields" style="shape=partialRectangle;html=1;whiteSpace=wrap;connectable=0;fillColor=none;top=0;left=0;bottom=0;right=0;overflow=hidden;" vertex="1" parent="VSbXNU693h9QZ7fEaHRp-406">
          <mxGeometry width="105" height="30" as="geometry" />
        </mxCell>
        <mxCell id="VSbXNU693h9QZ7fEaHRp-408" value="....." style="shape=partialRectangle;html=1;whiteSpace=wrap;connectable=0;fillColor=none;top=0;left=0;bottom=0;right=0;align=center;spacingLeft=6;overflow=hidden;" vertex="1" parent="VSbXNU693h9QZ7fEaHRp-406">
          <mxGeometry x="105" width="105" height="30" as="geometry" />
        </mxCell>
        <mxCell id="VSbXNU693h9QZ7fEaHRp-412" style="edgeStyle=orthogonalEdgeStyle;rounded=0;orthogonalLoop=1;jettySize=auto;html=1;exitX=0;exitY=0.5;exitDx=0;exitDy=0;entryX=1;entryY=0.5;entryDx=0;entryDy=0;" edge="1" parent="1" source="VSbXNU693h9QZ7fEaHRp-417" target="VSbXNU693h9QZ7fEaHRp-387">
          <mxGeometry relative="1" as="geometry">
            <mxPoint x="-460" y="445" as="targetPoint" />
            <Array as="points">
              <mxPoint x="-460" y="305" />
              <mxPoint x="-460" y="365" />
            </Array>
          </mxGeometry>
        </mxCell>
        <mxCell id="VSbXNU693h9QZ7fEaHRp-424" value="&lt;font style=&quot;font-size: 14px&quot;&gt;UtxoInput&lt;/font&gt;" style="edgeLabel;html=1;align=center;verticalAlign=middle;resizable=0;points=[];" vertex="1" connectable="0" parent="VSbXNU693h9QZ7fEaHRp-412">
          <mxGeometry x="-0.0949" relative="1" as="geometry">
            <mxPoint as="offset" />
          </mxGeometry>
        </mxCell>
        <mxCell id="VSbXNU693h9QZ7fEaHRp-413" value="TransactionB" style="shape=table;html=1;whiteSpace=wrap;startSize=30;container=1;collapsible=0;childLayout=tableLayout;fixedRows=1;rowLines=0;fontStyle=1;align=center;" vertex="1" parent="1">
          <mxGeometry x="-413" y="210" width="210" height="140" as="geometry" />
        </mxCell>
        <mxCell id="VSbXNU693h9QZ7fEaHRp-414" value="" style="shape=partialRectangle;html=1;whiteSpace=wrap;collapsible=0;dropTarget=0;pointerEvents=0;fillColor=none;top=0;left=0;bottom=1;right=0;points=[[0,0.5],[1,0.5]];portConstraint=eastwest;" vertex="1" parent="VSbXNU693h9QZ7fEaHRp-413">
          <mxGeometry y="30" width="210" height="30" as="geometry" />
        </mxCell>
        <mxCell id="VSbXNU693h9QZ7fEaHRp-415" value="inputs" style="shape=partialRectangle;html=1;whiteSpace=wrap;connectable=0;fillColor=none;top=0;left=0;bottom=0;right=0;overflow=hidden;" vertex="1" parent="VSbXNU693h9QZ7fEaHRp-414">
          <mxGeometry width="105" height="30" as="geometry" />
        </mxCell>
        <mxCell id="VSbXNU693h9QZ7fEaHRp-416" value="....." style="shape=partialRectangle;html=1;whiteSpace=wrap;connectable=0;fillColor=none;top=0;left=0;bottom=0;right=0;align=center;spacingLeft=6;overflow=hidden;" vertex="1" parent="VSbXNU693h9QZ7fEaHRp-414">
          <mxGeometry x="105" width="105" height="30" as="geometry" />
        </mxCell>
        <mxCell id="VSbXNU693h9QZ7fEaHRp-417" value="" style="shape=partialRectangle;html=1;whiteSpace=wrap;collapsible=0;dropTarget=0;pointerEvents=0;fillColor=none;top=0;left=0;bottom=1;right=0;points=[[0,0.5],[1,0.5]];portConstraint=eastwest;" vertex="1" parent="VSbXNU693h9QZ7fEaHRp-413">
          <mxGeometry y="60" width="210" height="30" as="geometry" />
        </mxCell>
        <mxCell id="VSbXNU693h9QZ7fEaHRp-418" value="output" style="shape=partialRectangle;html=1;whiteSpace=wrap;connectable=0;fillColor=none;top=0;left=0;bottom=0;right=0;overflow=hidden;" vertex="1" parent="VSbXNU693h9QZ7fEaHRp-417">
          <mxGeometry width="105" height="30" as="geometry" />
        </mxCell>
        <mxCell id="VSbXNU693h9QZ7fEaHRp-419" value="UTXO2" style="shape=partialRectangle;html=1;whiteSpace=wrap;connectable=0;fillColor=none;top=0;left=0;bottom=0;right=0;align=center;spacingLeft=6;overflow=hidden;" vertex="1" parent="VSbXNU693h9QZ7fEaHRp-417">
          <mxGeometry x="105" width="105" height="30" as="geometry" />
        </mxCell>
        <mxCell id="VSbXNU693h9QZ7fEaHRp-420" value="" style="shape=partialRectangle;html=1;whiteSpace=wrap;collapsible=0;dropTarget=0;pointerEvents=0;fillColor=none;top=0;left=0;bottom=1;right=0;points=[[0,0.5],[1,0.5]];portConstraint=eastwest;" vertex="1" parent="VSbXNU693h9QZ7fEaHRp-413">
          <mxGeometry y="90" width="210" height="30" as="geometry" />
        </mxCell>
        <mxCell id="VSbXNU693h9QZ7fEaHRp-421" value="other&lt;br&gt;fields" style="shape=partialRectangle;html=1;whiteSpace=wrap;connectable=0;fillColor=none;top=0;left=0;bottom=0;right=0;overflow=hidden;" vertex="1" parent="VSbXNU693h9QZ7fEaHRp-420">
          <mxGeometry width="105" height="30" as="geometry" />
        </mxCell>
        <mxCell id="VSbXNU693h9QZ7fEaHRp-422" value="....." style="shape=partialRectangle;html=1;whiteSpace=wrap;connectable=0;fillColor=none;top=0;left=0;bottom=0;right=0;align=center;spacingLeft=6;overflow=hidden;" vertex="1" parent="VSbXNU693h9QZ7fEaHRp-420">
          <mxGeometry x="105" width="105" height="30" as="geometry" />
        </mxCell>
        <mxCell id="VSbXNU693h9QZ7fEaHRp-446" style="edgeStyle=orthogonalEdgeStyle;rounded=0;orthogonalLoop=1;jettySize=auto;html=1;exitX=0.5;exitY=0;exitDx=0;exitDy=0;entryX=1;entryY=0.5;entryDx=0;entryDy=0;" edge="1" parent="1" source="VSbXNU693h9QZ7fEaHRp-425" target="VSbXNU693h9QZ7fEaHRp-390">
          <mxGeometry relative="1" as="geometry" />
        </mxCell>
        <mxCell id="VSbXNU693h9QZ7fEaHRp-425" value="UTXO3" style="shape=table;html=1;whiteSpace=wrap;startSize=30;container=1;collapsible=0;childLayout=tableLayout;fixedRows=1;rowLines=0;fontStyle=1;align=center;" vertex="1" parent="1">
          <mxGeometry x="-413" y="420" width="210" height="140" as="geometry" />
        </mxCell>
        <mxCell id="VSbXNU693h9QZ7fEaHRp-426" value="" style="shape=partialRectangle;html=1;whiteSpace=wrap;collapsible=0;dropTarget=0;pointerEvents=0;fillColor=none;top=0;left=0;bottom=1;right=0;points=[[0,0.5],[1,0.5]];portConstraint=eastwest;" vertex="1" parent="VSbXNU693h9QZ7fEaHRp-425">
          <mxGeometry y="30" width="210" height="30" as="geometry" />
        </mxCell>
        <mxCell id="VSbXNU693h9QZ7fEaHRp-427" value="value" style="shape=partialRectangle;html=1;whiteSpace=wrap;connectable=0;fillColor=none;top=0;left=0;bottom=0;right=0;overflow=hidden;" vertex="1" parent="VSbXNU693h9QZ7fEaHRp-426">
          <mxGeometry width="105" height="30" as="geometry" />
        </mxCell>
        <mxCell id="VSbXNU693h9QZ7fEaHRp-428" value="100" style="shape=partialRectangle;html=1;whiteSpace=wrap;connectable=0;fillColor=none;top=0;left=0;bottom=0;right=0;align=center;spacingLeft=6;overflow=hidden;" vertex="1" parent="VSbXNU693h9QZ7fEaHRp-426">
          <mxGeometry x="105" width="105" height="30" as="geometry" />
        </mxCell>
        <mxCell id="VSbXNU693h9QZ7fEaHRp-429" value="" style="shape=partialRectangle;html=1;whiteSpace=wrap;collapsible=0;dropTarget=0;pointerEvents=0;fillColor=none;top=0;left=0;bottom=1;right=0;points=[[0,0.5],[1,0.5]];portConstraint=eastwest;" vertex="1" parent="VSbXNU693h9QZ7fEaHRp-425">
          <mxGeometry y="60" width="210" height="30" as="geometry" />
        </mxCell>
        <mxCell id="VSbXNU693h9QZ7fEaHRp-430" value="type" style="shape=partialRectangle;html=1;whiteSpace=wrap;connectable=0;fillColor=none;top=0;left=0;bottom=0;right=0;overflow=hidden;" vertex="1" parent="VSbXNU693h9QZ7fEaHRp-429">
          <mxGeometry width="105" height="30" as="geometry" />
        </mxCell>
        <mxCell id="VSbXNU693h9QZ7fEaHRp-431" value="None" style="shape=partialRectangle;html=1;whiteSpace=wrap;connectable=0;fillColor=none;top=0;left=0;bottom=0;right=0;align=center;spacingLeft=6;overflow=hidden;" vertex="1" parent="VSbXNU693h9QZ7fEaHRp-429">
          <mxGeometry x="105" width="105" height="30" as="geometry" />
        </mxCell>
        <mxCell id="VSbXNU693h9QZ7fEaHRp-432" value="" style="shape=partialRectangle;html=1;whiteSpace=wrap;collapsible=0;dropTarget=0;pointerEvents=0;fillColor=none;top=0;left=0;bottom=1;right=0;points=[[0,0.5],[1,0.5]];portConstraint=eastwest;" vertex="1" parent="VSbXNU693h9QZ7fEaHRp-425">
          <mxGeometry y="90" width="210" height="30" as="geometry" />
        </mxCell>
        <mxCell id="VSbXNU693h9QZ7fEaHRp-433" value="lock" style="shape=partialRectangle;html=1;whiteSpace=wrap;connectable=0;fillColor=none;top=0;left=0;bottom=0;right=0;overflow=hidden;" vertex="1" parent="VSbXNU693h9QZ7fEaHRp-432">
          <mxGeometry width="105" height="30" as="geometry" />
        </mxCell>
        <mxCell id="VSbXNU693h9QZ7fEaHRp-434" value="" style="shape=partialRectangle;html=1;whiteSpace=wrap;connectable=0;fillColor=none;top=0;left=0;bottom=0;right=0;align=center;spacingLeft=6;overflow=hidden;" vertex="1" parent="VSbXNU693h9QZ7fEaHRp-432">
          <mxGeometry x="105" width="105" height="30" as="geometry" />
        </mxCell>
        <mxCell id="VSbXNU693h9QZ7fEaHRp-445" style="edgeStyle=orthogonalEdgeStyle;rounded=0;orthogonalLoop=1;jettySize=auto;html=1;exitX=0.5;exitY=0;exitDx=0;exitDy=0;entryX=1;entryY=0.5;entryDx=0;entryDy=0;" edge="1" parent="1" source="VSbXNU693h9QZ7fEaHRp-435" target="VSbXNU693h9QZ7fEaHRp-432">
          <mxGeometry relative="1" as="geometry" />
        </mxCell>
        <mxCell id="VSbXNU693h9QZ7fEaHRp-435" value="Script" style="shape=table;html=1;whiteSpace=wrap;startSize=30;container=1;collapsible=0;childLayout=tableLayout;fixedRows=1;rowLines=0;fontStyle=1;align=center;" vertex="1" parent="1">
          <mxGeometry x="-120" y="420" width="210" height="140" as="geometry" />
        </mxCell>
        <mxCell id="VSbXNU693h9QZ7fEaHRp-436" value="" style="shape=partialRectangle;html=1;whiteSpace=wrap;collapsible=0;dropTarget=0;pointerEvents=0;fillColor=none;top=0;left=0;bottom=1;right=0;points=[[0,0.5],[1,0.5]];portConstraint=eastwest;" vertex="1" parent="VSbXNU693h9QZ7fEaHRp-435">
          <mxGeometry y="30" width="210" height="30" as="geometry" />
        </mxCell>
        <mxCell id="VSbXNU693h9QZ7fEaHRp-437" value="code_hash" style="shape=partialRectangle;html=1;whiteSpace=wrap;connectable=0;fillColor=none;top=0;left=0;bottom=0;right=0;overflow=hidden;" vertex="1" parent="VSbXNU693h9QZ7fEaHRp-436">
          <mxGeometry width="105" height="30" as="geometry" />
        </mxCell>
        <mxCell id="VSbXNU693h9QZ7fEaHRp-438" value="hash(byte1)" style="shape=partialRectangle;html=1;whiteSpace=wrap;connectable=0;fillColor=none;top=0;left=0;bottom=0;right=0;align=center;spacingLeft=6;overflow=hidden;" vertex="1" parent="VSbXNU693h9QZ7fEaHRp-436">
          <mxGeometry x="105" width="105" height="30" as="geometry" />
        </mxCell>
        <mxCell id="VSbXNU693h9QZ7fEaHRp-439" value="" style="shape=partialRectangle;html=1;whiteSpace=wrap;collapsible=0;dropTarget=0;pointerEvents=0;fillColor=none;top=0;left=0;bottom=1;right=0;points=[[0,0.5],[1,0.5]];portConstraint=eastwest;" vertex="1" parent="VSbXNU693h9QZ7fEaHRp-435">
          <mxGeometry y="60" width="210" height="30" as="geometry" />
        </mxCell>
        <mxCell id="VSbXNU693h9QZ7fEaHRp-440" value="args" style="shape=partialRectangle;html=1;whiteSpace=wrap;connectable=0;fillColor=none;top=0;left=0;bottom=0;right=0;overflow=hidden;" vertex="1" parent="VSbXNU693h9QZ7fEaHRp-439">
          <mxGeometry width="105" height="30" as="geometry" />
        </mxCell>
        <mxCell id="VSbXNU693h9QZ7fEaHRp-441" value="&quot;1,2&quot;" style="shape=partialRectangle;html=1;whiteSpace=wrap;connectable=0;fillColor=none;top=0;left=0;bottom=0;right=0;align=center;spacingLeft=6;overflow=hidden;" vertex="1" parent="VSbXNU693h9QZ7fEaHRp-439">
          <mxGeometry x="105" width="105" height="30" as="geometry" />
        </mxCell>
        <mxCell id="VSbXNU693h9QZ7fEaHRp-442" value="" style="shape=partialRectangle;html=1;whiteSpace=wrap;collapsible=0;dropTarget=0;pointerEvents=0;fillColor=none;top=0;left=0;bottom=1;right=0;points=[[0,0.5],[1,0.5]];portConstraint=eastwest;" vertex="1" parent="VSbXNU693h9QZ7fEaHRp-435">
          <mxGeometry y="90" width="210" height="30" as="geometry" />
        </mxCell>
        <mxCell id="VSbXNU693h9QZ7fEaHRp-443" value="hash_target" style="shape=partialRectangle;html=1;whiteSpace=wrap;connectable=0;fillColor=none;top=0;left=0;bottom=0;right=0;overflow=hidden;" vertex="1" parent="VSbXNU693h9QZ7fEaHRp-442">
          <mxGeometry width="105" height="30" as="geometry" />
        </mxCell>
        <mxCell id="VSbXNU693h9QZ7fEaHRp-444" value="0" style="shape=partialRectangle;html=1;whiteSpace=wrap;connectable=0;fillColor=none;top=0;left=0;bottom=0;right=0;align=center;spacingLeft=6;overflow=hidden;" vertex="1" parent="VSbXNU693h9QZ7fEaHRp-442">
          <mxGeometry x="105" width="105" height="30" as="geometry" />
        </mxCell>
      </root>
    </mxGraphModel>
  </diagram>
</mxfile>
